<?xml version="1.0" encoding="UTF-8"?>
<svg id="Ebene_1" data-name="Ebene 1" xmlns="http://www.w3.org/2000/svg" viewBox="0 0 800 800">
  <defs>
    <style>
      .cls-1 {
        fill: #fff1ed;
      }

      .cls-2 {
        fill: #413c8d;
      }

      .cls-3 {
        fill: none;
        stroke: #413c8d;
        stroke-linecap: round;
        stroke-linejoin: round;
        stroke-width: 16px;
      }
    </style>
  </defs>
  <g id="cloud">
    <circle class="cls-1" cx="132.47" cy="488.98" r="92.97"/>
    <circle class="cls-1" cx="286.89" cy="390.8" r="141.47"/>
    <rect class="cls-1" x="57.69" y="435.42" width="500.21" height="146.53" rx="72.5" ry="72.5"/>
    <circle class="cls-1" cx="489.45" cy="455.13" r="126.82"/>
  </g>
  <path class="cls-2" d="m196.42,465.61l6,12.17c1.35,2.74,3.96,4.64,6.98,5.07l13.43,1.95c7.61,1.11,10.65,10.46,5.14,15.82l-9.71,9.47c-2.19,2.13-3.18,5.2-2.67,8.21l2.29,13.37c1.3,7.58-6.65,13.36-13.46,9.78l-12.01-6.31c-2.7-1.42-5.93-1.42-8.63,0l-12.01,6.31c-6.81,3.58-14.76-2.2-13.46-9.78l2.29-13.37c.52-3.01-.48-6.08-2.67-8.21l-9.71-9.47c-5.51-5.37-2.47-14.72,5.14-15.82l13.43-1.95c3.02-.44,5.63-2.34,6.98-5.07l6-12.17c3.4-6.9,13.24-6.9,16.64,0Z"/>
  <path class="cls-2" d="m325.1,468.54l5.51,11.17c1.24,2.51,3.64,4.26,6.42,4.66l12.33,1.79c6.99,1.02,9.78,9.6,4.72,14.53l-8.92,8.7c-2.01,1.96-2.92,4.78-2.45,7.54l2.11,12.28c1.19,6.96-6.11,12.27-12.36,8.98l-11.03-5.8c-2.48-1.31-5.45-1.31-7.93,0l-11.03,5.8c-6.25,3.29-13.56-2.02-12.36-8.98l2.11-12.28c.47-2.76-.44-5.58-2.45-7.54l-8.92-8.7c-5.06-4.93-2.27-13.52,4.72-14.53l12.33-1.79c2.78-.4,5.17-2.15,6.42-4.66l5.51-11.17c3.13-6.33,12.16-6.33,15.28,0Z"/>
  <line class="cls-3" x1="586.38" y1="571.95" x2="761.07" y2="571.95"/>
  <line class="cls-3" x1="616.27" y1="537.2" x2="780.35" y2="537.2"/>
  <line class="cls-3" x1="655.31" y1="506.69" x2="769.46" y2="506.69"/>
</svg>