<?xml version="1.0" encoding="UTF-8"?>
<svg id="Ebene_1" data-name="Ebene 1" xmlns="http://www.w3.org/2000/svg" viewBox="0 0 800 800">
  <defs>
    <style>
      .cls-1 {
        fill: #fdfbf5;
      }

      .cls-2 {
        fill: #413c8d;
      }

      .cls-3 {
        fill: none;
        stroke: #413c8d;
        stroke-linecap: round;
        stroke-linejoin: round;
        stroke-width: 16px;
      }
    </style>
  </defs>
  <g id="cloud">
    <circle class="cls-1" cx="132.47" cy="488.98" r="92.97"/>
    <circle class="cls-1" cx="286.89" cy="390.8" r="141.47"/>
    <rect class="cls-1" x="57.69" y="435.42" width="500.21" height="146.53" rx="72.5" ry="72.5"/>
    <path class="cls-1" d="m616.27,463.13c0,70.04-57.22,118.87-127.26,118.87s-126.38-48.83-126.38-118.87,56.78-126.82,126.82-126.82,126.82,56.78,126.82,126.82Z"/>
  </g>
  <circle class="cls-3" cx="234.57" cy="479.93" r="59.13"/>
  <circle class="cls-3" cx="389.42" cy="479.93" r="59.13"/>
  <circle class="cls-2" cx="234.57" cy="480.5" r="26.77"/>
  <circle class="cls-2" cx="389.42" cy="480.5" r="26.77"/>
  <path class="cls-3" d="m451.43,336.3c20.51-6.46,42.94-7.78,65.44-2.79,68.38,15.16,111.52,82.89,96.36,151.27-9.18,41.39-33.21,68.98-69.19,81.79-23.72,8.44-37.07,7.94-54.6,7.94"/>
  <path class="cls-3" d="m504.1,296.82c23.94,1,47.94,8.12,69.63,21.87,65.9,41.8,85.45,129.11,43.65,195.01-25.3,39.89-65.68,59.95-108.23,60.32-6.94.06-43.83.65-52.59.71"/>
  <line class="cls-3" x1="489.45" y1="574.5" x2="443.9" y2="574.76"/>
  <path class="cls-3" d="m591.23,282.83c75.13,47.65,97.41,147.19,49.76,222.32-28.84,45.47-74.88,68.35-123.39,68.76-7.91.07-49.97.74-59.96.81"/>
</svg>