<?xml version="1.0" encoding="UTF-8"?>
<svg id="Ebene_1" data-name="Ebene 1" xmlns="http://www.w3.org/2000/svg" viewBox="0 0 1125 2436">
  <defs>
    <style>
      .cls-1 {
        stroke-width: 24px;
      }

      .cls-1, .cls-2 {
        fill: none;
        stroke: #98c1d9;
        stroke-linecap: round;
        stroke-linejoin: round;
      }

      .cls-3 {
        fill: #98c1d9;
      }

      .cls-2 {
        stroke-width: 16px;
      }
    </style>
  </defs>
  <g id="augen">
    <path class="cls-1" d="m365.6,504.66c0,36.9,29.91,66.81,66.81,66.81s66.81-29.91,66.81-66.81"/>
    <path class="cls-1" d="m619.81,504.66c0,36.9,29.91,66.81,66.81,66.81s66.81-29.91,66.81-66.81"/>
  </g>
  <g id="bauch">
    <path class="cls-2" d="m627.96,2029.55c80.45-28.65,123.72-124.01,103.42-205.3-22.83-91.43-114.56-149.95-203.01-127.86"/>
    <path class="cls-2" d="m597.15,2040.34c-88.49,24.51-176.11-26.98-201.74-111.57-25.1-82.83,22.2-188.81,100.29-222.11"/>
    <path class="cls-3" d="m534.7,1933.67c2.37,9.5-3.41,19.13-12.91,21.5-9.5,2.37-19.13-3.41-21.5-12.91-2.37-9.5,3.41-19.13,12.91-21.5,9.5-2.37,19.13,3.41,21.5,12.91Z"/>
  </g>
  <path id="nase" class="cls-2" d="m525.82,683.68c-4.74,15.41-30.96,57.16-37.4,71.94-16.54,37.96,12.82,78.19,52.4,66.03,8.59-2.64,9.29-5.96,21.9-6.02,12.12-.05,15.82,3.38,22.1,6.19,37.78,16.95,69.55-28.29,51.04-65.34-7.53-15.06-41.2-52.63-45.77-70.45-17.66-68.87-44.11-67.88-64.27-2.35Z"/>
  <g id="lunge">
    <path class="cls-2" d="m488.64,1349.91c-8.08,17.45-28.06,25.34-44.67,17.65"/>
    <path class="cls-2" d="m559.4,1158.81s3.29,38,1.3,69.66c-.41,6.6-1.06,12.92-2.01,18.57-1.22,7.26-2.95,13.4-5.36,17.56-9.01,15.6-28.12,18.47-71.64,7.72-38.53-9.51-95.17,101.74-95.17,158.51s8.58,112.44,40.44,117.44,45.04-60.2,70.9-59.69c25.86.51,27.62-21.53,32.51-45.01"/>
    <path class="cls-2" d="m559.12,1159.55s2.62,39.14,1.45,70.86c-.28,7.63-.44,18,.51,23.65,1.22,7.26,1.69,7.12,4.1,11.29,9.01,15.6,28.12,18.47,71.64,7.72,38.53-9.51,95.17,101.74,95.17,158.51s-8.58,112.44-40.44,117.44c-31.86,5.01-45.04-60.2-70.9-59.69s-27.62-21.53-32.51-45.01"/>
    <path class="cls-2" d="m559.4,1242.29s17.19,81.08-13.44,98.46c-34.88,19.79-45.94,13.72-64.27-2.04-14.12-12.14-21.02-13.98-29.21-9.57"/>
    <path class="cls-2" d="m561.08,1254.05s2.21,72.75,16.56,95.46c21.41,33.91,45.94,13.72,64.27-2.04,14.12-12.14,21.02-13.98,29.21-9.57"/>
    <path class="cls-2" d="m446.21,1419.22c41.5-13.69,77-35.43,67.32-64.8"/>
    <path class="cls-2" d="m616.1,1367.99c8.08,17.45,28.06,35.94,44.67,28.25"/>
    <path class="cls-2" d="m660.78,1435.3c-41.5-13.69-77-35.43-67.32-64.8"/>
    <path class="cls-2" d="m541.95,1345.32c11.03,25.08-.97,46.22-26.82,57.59"/>
    <path class="cls-2" d="m642.68,1349.91c0,19.62,17.16,20.6,35.1,20.6"/>
  </g>
  <path id="mund" class="cls-2" d="m708.36,947.8c0,25.85-65.31,46.81-145.86,46.81s-145.86-20.96-145.86-46.81,291.73-25.85,291.73,0Z"/>
</svg>