<?xml version="1.0" encoding="UTF-8"?>
<svg id="Ebene_1" data-name="Ebene 1" xmlns="http://www.w3.org/2000/svg" viewBox="0 0 800 400">
  <defs>
    <style>
      .cls-1 {
        fill: #413c8d;
      }

      .cls-2 {
        fill: none;
        stroke: #eaeafa;
        stroke-linecap: round;
        stroke-linejoin: round;
        stroke-width: 16px;
      }
    </style>
  </defs>
  <circle class="cls-1" cx="186.21" cy="280.24" r="101.71"/>
  <circle class="cls-1" cx="355.15" cy="172.83" r="154.78"/>
  <rect class="cls-1" x="104.4" y="221.65" width="547.25" height="160.3" rx="72.5" ry="72.5"/>
  <circle class="cls-1" cx="576.75" cy="243.21" r="138.75"/>
  <path class="cls-2" d="m502.19,344.74H183.5c-35.6,0-64.46-28.86-64.46-64.46s28.86-64.46,64.46-64.46"/>
  <line class="cls-2" x1="345.82" y1="271.31" x2="186.21" y2="270.91"/>
  <path class="cls-2" d="m345.82,76.6c53.68,0,97.35,43.67,97.35,97.35s-43.67,97.35-97.35,97.35"/>
  <path class="cls-2" d="m411.36,102.42c-33.24-34.26-87.96-35.09-122.22-1.85-27.41,26.59-28.07,70.37-1.48,97.78,21.27,21.93,56.29,22.46,78.22,1.19,17.54-17.02,17.97-45.04.95-62.58-13.61-14.03-36.03-14.37-50.06-.76"/>
  <path class="cls-2" d="m502.19,224.85c.85-44.63,37.85-80.25,82.48-79.41,44.63.85,80.25,37.85,79.41,82.48"/>
  <line class="cls-2" x1="268.14" y1="304.93" x2="588.96" y2="303.06"/>
  <path class="cls-2" d="m664.09,227.93c0,41.53-33.6,75.13-75.13,75.13"/>
</svg>