<?xml version="1.0" encoding="UTF-8" standalone="no"?>
<!DOCTYPE svg PUBLIC "-//W3C//DTD SVG 1.1//EN" "http://www.w3.org/Graphics/SVG/1.1/DTD/svg11.dtd">
<svg width="100%" height="100%" viewBox="0 0 1080 1080" version="1.1" xmlns="http://www.w3.org/2000/svg" xmlns:xlink="http://www.w3.org/1999/xlink" xml:space="preserve" xmlns:serif="http://www.serif.com/" style="fill-rule:evenodd;clip-rule:evenodd;stroke-linejoin:round;stroke-miterlimit:2;">
    <g id="player" transform="matrix(1.92388,0,0,1.92388,-630.447,-2084.64)">
        <path d="M604.264,1088.87C753.963,1088.87 875.5,1202.14 875.5,1351.84C875.5,1501.54 757.693,1631.34 607.994,1631.34C529.08,1631.34 457.976,1596.55 408.376,1541.71C363.884,1492.53 336.696,1427.22 336.696,1356.44C336.696,1206.74 454.564,1088.87 604.264,1088.87Z" style="fill:rgb(65,60,141);"/>
    </g>
    <g transform="matrix(-0.0318117,2.09401,-1.65371,-0.0251227,2931.29,-697.947)">
        <g id="play-button" serif:id="play button">
            <path d="M588.729,1270.71C590.871,1266.43 594.595,1263.84 598.599,1263.84C602.602,1263.84 606.327,1266.43 608.468,1270.71C635.105,1323.99 708.119,1470.02 732.919,1519.62C734.599,1522.98 734.702,1527.23 733.188,1530.71C731.673,1534.2 728.782,1536.36 725.642,1536.36L477.324,1536.36C473.026,1536.36 469.069,1533.4 466.997,1528.63C464.924,1523.86 465.065,1518.05 467.364,1513.45C494.652,1458.87 563.122,1321.93 588.729,1270.71Z" style="fill:rgb(234,234,250);"/>
        </g>
    </g>
</svg>
