<?xml version="1.0" encoding="UTF-8"?>
<svg id="Ebene_1" data-name="Ebene 1" xmlns="http://www.w3.org/2000/svg" viewBox="0 0 800 800">
  <defs>
    <style>
      .cls-1 {
        fill: #eaf5f7;
      }

      .cls-2 {
        fill: none;
        stroke: #413c8d;
        stroke-linecap: round;
        stroke-linejoin: round;
        stroke-width: 16px;
      }
    </style>
  </defs>
  <g id="cloud">
    <circle class="cls-1" cx="163.01" cy="481.71" r="92.97"/>
    <circle class="cls-1" cx="317.42" cy="383.53" r="141.47"/>
    <rect class="cls-1" x="88.23" y="428.16" width="500.21" height="146.53" rx="72.5" ry="72.5"/>
    <path class="cls-1" d="m646.81,455.86c0,70.04-57.22,118.87-127.26,118.87s-126.38-48.83-126.38-118.87,56.78-126.82,126.82-126.82,126.82,56.78,126.82,126.82Z"/>
  </g>
  <path class="cls-2" d="m149.4,463.02c0,36.9,29.91,66.81,66.81,66.81s66.81-29.91,66.81-66.81"/>
  <path class="cls-2" d="m343.61,463.02c0,36.9,29.91,66.81,66.81,66.81s66.81-29.91,66.81-66.81"/>
  <path class="cls-2" d="m558.6,536.83c29.4,0,29.4,16,58.8,16s29.4-16,58.8-16,29.4,16,58.8,16"/>
  <path class="cls-2" d="m734.88,505.17c-25.06-.4-24.8-16.4-49.86-16.81s-25.32,15.59-50.38,15.19"/>
  <path class="cls-2" d="m563.01,438.01c28.67,0,28.67,16,57.33,16s28.67-16,57.33-16,28.67,16,57.33,16"/>
</svg>