<?xml version="1.0" encoding="UTF-8"?>
<svg id="Ebene_1" data-name="Ebene 1" xmlns="http://www.w3.org/2000/svg" viewBox="0 0 1125 2436">
  <defs>
    <style>
      .cls-1 {
        stroke-width: 24px;
      }

      .cls-1, .cls-2 {
        fill: none;
        stroke: #74bdcb;
        stroke-linecap: round;
        stroke-linejoin: round;
      }

      .cls-2 {
        stroke-width: 16px;
      }
    </style>
  </defs>
  <path id="line3" class="cls-2" d="m900.2,1059.99c29.4,0,29.4,16,58.8,16s29.4-16,58.8-16,29.4,16,58.8,16"/>
  <path id="line2" class="cls-2" d="m1076.48,1028.33c-25.06-.4-24.8-16.4-49.86-16.81s-25.32,15.59-50.38,15.19"/>
  <path id="line1" class="cls-2" d="m904.61,961.17c28.67,0,28.67,16,57.33,16s28.67-16,57.33-16,28.67,16,57.33,16"/>
  <path id="cloud" class="cls-1" d="m785.07,479.79c-40.39,0-78.15,11.25-110.32,30.8-26.8-101.72-119.4-176.74-229.54-176.74-131.09,0-237.37,106.27-237.37,237.37,0,3.45.09,6.88.24,10.29-7.17-1.01-14.5-1.54-21.95-1.54-86.15,0-155.98,69.84-155.98,155.98,0,75.53,53.69,138.52,124.98,152.9,8.74,2,17.83,3.09,27.18,3.09h595.85c2.05.05,4.11.08,6.18.08,117.52,0,213.52-81.93,213.52-199.44s-95.27-212.78-212.78-212.78Z"/>
  <path id="mouth" class="cls-2" d="m610.08,728.69c-47.58,46.81-65.31,66.81-145.86,66.81s-96.37-20-145.86-66.81"/>
</svg>